# xmcd
#
# Track frame offsets: 
#        150
#        17564
#        38909
#        56553
#        74254
#        94570
#        114975
#        134297
#        159874
#        179886
#        202296
#        222290
#        244919
#        282736
#
# Disc length: 4168 seconds
#
# Revision: 0
# Processed by: cddbd v1.5.2PL0 Copyright (c) Steve Scherf et al.
# Submitted via: ExactAudioCopy v0.95a5
#
DISCID=d310460e
DTITLE=Rochereau - L'African Fiesta National (1966-1969)
DYEAR=1900
DGENRE=
TTITLE0=Peuple Bo Juger
TTITLE1=Mission Officielle
TTITLE2=Pole M'Ze
TTITLE3=Nati Yo Motema
TTITLE4=Succes Alamoule
TTITLE5=Guantanamera
TTITLE6=Garba
TTITLE7=Joujou Zena
TTITLE8=Cadeco
TTITLE9=Maguy
TTITLE10=Vive Les Leopards
TTITLE11=Josephine Alekaki Awa
TTITLE12=Martin Luther King I and II
TTITLE13=Peuple
EXTD=
EXTT0=
EXTT1=
EXTT2=
EXTT3=
EXTT4=
EXTT5=
EXTT6=
EXTT7=
EXTT8=
EXTT9=
EXTT10=
EXTT11=
EXTT12=
EXTT13=
PLAYORDER=
